<?xml version="1.0" standalone="no"?>
<!DOCTYPE svg PUBLIC "-//W3C//DTD SVG 1.1//EN" "http://www.w3.org/Graphics/SVG/1.1/DTD/svg11.dtd">
<svg xmlns="http://www.w3.org/2000/svg" id="Camada_1" data-name="Camada 1" viewBox="0 0 722.38 269.01" width="722.3800048828125" height="269.010009765625">
  <defs>
    <style>
      .cls-1 {
        fill: #010101;
        stroke-width: 0px;
      }
    </style>
  </defs>
  <path class="cls-1" d="M581.06,18.82c-8.06,1.3-14.96,6.04-18.45,12.77-1.85,3.44-2.1,5.61-2.1,17.11v10.6l6.08-.07,6.04-.07.21-11.03.21-11.03,1.15-1.7c1.44-2.17,3.25-3.69,5.84-4.92,2.05-.98,2.14-.98,11.75-1.09l9.7-.14,1.27.98c1.23.9,1.32,1.12,1.32,3.4,0,2.82.86,4.52,2.88,5.71l1.36.83h33.12c32.14,0,33.17-.04,34.44-.72,1.81-.98,2.63-2.53,2.88-5.61.16-1.7.49-2.89.99-3.47l.74-.87h20.38l2.05.98c2.67,1.23,5.22,3.65,6.21,5.93.78,1.74.78,4.3.78,103.04v101.27l-1.15,2.06c-1.44,2.57-3.16,4.12-6.04,5.32l-2.26.94-58.36.11c-57.78.07-58.36.07-60.86-.65-3-.9-5.71-3-7.19-5.64-.99-1.77-.99-1.84-1.19-15.88l-.21-14.11-6.04-.11-6.08-.11v13.71c0,14.5.21,16.49,1.93,20.11,3.16,6.62,9.37,11.28,17.22,12.88,3.37.69,5.22.72,61.93.72s58.56-.04,61.6-.72c8.88-1.95,15.21-7.23,18.25-15.19.74-1.92.78-5.61.9-103.26.08-110.92.25-104.78-2.3-109.59-3-5.61-7.85-9.37-15.29-11.9l-2.26-.76-59.8-.04c-32.88-.04-60.62.07-61.65.22Z"/>
  <path class="cls-1" d="M70.74,4.23c-3.7,7.2-10.96,18.36-16.17,24.99-1.17,1.51-1.95,2.92-1.75,3.15,1.32,1.18,13.49,6.64,14.22,6.35,3.36-1.22,15.73-9.74,19.24-13.23,3.85-3.81,5.36-9.74,3.56-13.93-1.9-4.33-7.99-9.55-12.86-10.97-3.7-1.13-3.75-1.08-6.23,3.62Z"/>
  <path class="cls-1" d="M654.66,75.79c-4.28,1.17-8.41,3.55-11.9,6.89-4.95,4.72-7.62,9.24-8.92,15.1-.67,3.02-.73,4.9-.21,7.24l.36,1.7,2.25.21c5.46.47,10.47-1.23,15.6-5.4,7.1-5.75,10.62-12.67,11.08-21.85.15-3.34.12-4.11-.24-4.34-.82-.5-5.49-.26-8.01.44ZM658.06,80.48c-.09.23-.33,1.52-.52,2.87-.67,4.72-2.76,8.53-6.83,12.58-3.58,3.58-7.28,5.66-11.08,6.28l-1.21.21v-1.35c0-6.69,6.13-15.28,13.78-19.24,2.73-1.41,6.19-2.2,5.86-1.35Z"/>
  <path class="cls-1" d="M.16,46.59C.02,46.92-.03,82.88.02,126.51l.15,79.3,47.73.14c48.31.14,55.28-.05,59.95-1.6,7.21-2.31,12.27-6.31,15.39-12.19,2.14-3.95,4.19-11.34,4.63-16.38l.29-3.62H39.37l.1-17.08.15-17.04,37.65-.14,37.6-.09-.1-14.97-.15-14.92-37.6-.14-37.65-.09v-27.3h86.21v-34.36h-62.58c-49.63,0-62.68.14-62.83.56Z"/>
  <path class="cls-1" d="M653.6,104.97c-2.25.38-4.7,1.14-10.32,3.23-1.58.59-3.91,1.2-5.16,1.38-2.58.35-3.73.15-8.04-1.5-7.86-3.02-10.86-3.58-16.33-3.02-12.02,1.17-22.43,9.38-27.01,21.32-.46,1.11-1.18,3.49-1.64,5.28-.76,3.08-.82,3.58-.82,10.7-.03,7.07.03,7.71.82,11.58.49,2.26,1.15,5.01,1.49,6.16.97,3.17,2.58,7.86,3.07,8.97,4.04,9.06,7.16,14.31,11.99,19.94,3.85,4.52,7.31,7.27,11.35,8.97,1.73.76,2.25.82,5.55.82,3.95,0,4.19-.06,12.59-3.28,2.82-1.06,2.97-1.09,6.83-1.09,4.31.03,4.28,0,13.35,3.08,3.46,1.17,3.82,1.23,7.28,1.26,3.34.03,3.82-.06,5.61-.79,4.07-1.67,7.4-4.4,10.99-8.94,6.28-7.92,10.89-16.1,12.65-22.38.36-1.2.64-2.4.64-2.64s-.79-.73-1.73-1.14c-5.13-2.14-9.71-6.31-12.14-11.03-2.03-3.9-2.37-5.37-2.37-10.67,0-4.69.03-4.93.97-7.33,2.03-5.4,4.28-8.39,8.59-11.55,1.09-.79,2.34-1.94,2.79-2.52l.79-1.11-.91-1.55c-1.24-2.08-5.01-5.72-7.74-7.42-6.89-4.28-15.33-6.01-23.15-4.72ZM662.24,109.52c3.95.47,8.41,2.05,11.93,4.19.7.44,2.18,1.61,3.25,2.64l2,1.82-1.91,1.32c-3.55,2.49-7.5,8.24-9.13,13.37-2.18,6.74-1.49,14.93,1.79,21.23,2,3.84,6.34,8.48,10.23,10.91,1.27.82,2.34,1.61,2.34,1.76,0,.65-2.15,5.13-4.19,8.71-2.46,4.31-6.49,10-9.1,12.87-3.49,3.84-6.98,5.66-11.02,5.66-2.06.03-2.97-.21-8.19-1.91-6.28-2.05-8.53-2.52-12.05-2.52s-6.13.53-9.53,1.82c-8.59,3.23-10.77,3.55-14.14,1.99-8.83-4.05-18.57-18.53-23.12-34.46-1.73-6.01-2.28-10-2.28-16.42s.52-9.82,2.31-14.52c2.55-6.77,7.37-12.26,13.63-15.48,5.52-2.87,12.32-3.64,17.69-1.99,1.46.44,3.43,1.14,4.4,1.55,7.53,3.23,10.8,3.2,19.63-.03,5.46-2.02,6.31-2.29,8.35-2.52,2.55-.32,4.49-.32,7.13,0Z"/>
  <path class="cls-1" d="M207.11,76.15c-10.42,1.41-20.89,6.54-28.78,14.12l-2.53,2.4-.15-6.97-.15-6.97-18.85-.14-18.9-.09v181.2h37.99v-67.4l2.78,2.45c12.86,11.34,28,15.77,46.22,13.46,12.52-1.6,22.7-6.45,31.61-15.11,11.45-11.01,17.92-26.12,19.24-44.95.44-5.93.19-13.41-.49-17.41-1.56-8.75-3.26-15.34-4.82-18.59-.29-.52-1.22-2.54-2.14-4.52-3.51-7.58-10.33-15.86-17-20.8-6.33-4.66-11.59-7.15-19.87-9.37-4.48-1.18-6.14-1.41-13.15-1.55-4.43-.09-9.35,0-11.01.24ZM215.19,108.25c4.29,1.27,7.01,2.87,10.37,5.98,4.77,4.47,7.94,10.35,9.35,17.6.97,4.99.97,16.19,0,20.8-2.24,10.45-7.99,18.4-15.97,22.07-4.33,1.98-7.5,2.64-12.76,2.64s-8.43-.66-13.34-2.92c-5.75-2.64-9.94-6.82-13-12.85-3.21-6.35-3.65-8.33-3.95-17.08-.39-11.11.73-16.52,5.02-23.91,6.28-10.87,21.14-16.24,34.29-12.33Z"/>
  <path class="cls-1" d="M338.42,76.19c-6.82.71-15.88,3.25-22.89,6.4-4.38,1.98-10.71,6.26-14.81,10.02-14.03,12.85-20.36,28.38-20.36,49.89-.05,12.66,2,22.07,6.92,31.82,8.04,16,22.21,27.16,40.42,31.86,14.12,3.67,32.34,3.48,46.27-.42,4.68-1.32,4.48-1.27,10.42-3.91,14.08-6.35,26.2-19.44,31.41-34.07,3.26-9.08,3.7-12.14,3.7-25.27,0-10.97-.1-12.43-1.17-16.94-2.97-12.66-8.72-23.06-17.29-31.35-10.67-10.26-24.5-16.47-40.47-18.07-5.11-.52-16.95-.52-22.16.05ZM356.97,106.74c5.5.99,11.45,4.75,15.39,9.65,6.33,8,8.96,22.4,6.53,36-2.44,13.65-10.42,22.92-21.62,25.13-6.77,1.36-15.2.66-19.97-1.65-9.5-4.61-15.54-14.5-16.95-27.72-1.56-15.01,2.78-28.8,11.35-36,2.48-2.07,8.08-4.8,11.15-5.37,3.02-.56,11.01-.61,14.12-.05Z"/>
  <path class="cls-1" d="M424.62,123.87c0,29.84.19,46.64.54,49.09,1.7,12.14,8.82,23.58,18.26,29.46,11.1,6.87,28.74,8.38,42.71,3.62,6.82-2.31,16.41-8.24,20.5-12.66.54-.52,1.12-.99,1.36-.99.19,0,.39,3.06.39,6.82v6.82h37.5v-127.55h-37.5v37.04c0,21.32-.24,38.5-.49,40.38-1.75,12.33-11.79,20.52-25.13,20.47-8.18-.05-13.34-2.21-16.85-7.11-3.7-5.13-3.56-3.25-3.7-49.51l-.1-41.28h-37.5v45.37Z"/>
  <path class="cls-1" d="M440.16,223.22c-1.32.71-3.12,4.14-2.63,4.99.58.85,2.58.42,3.36-.75.44-.66,1.27-1.18,1.8-1.18s1.8.52,2.78,1.18c2.53,1.65,4.68,1.55,6.48-.28.88-.94,1.41-1.98,1.41-2.82,0-1.18-.19-1.36-1.46-1.36-.93,0-1.61.33-1.95.94-.68,1.27-2.24,1.18-4.63-.24-2.19-1.32-3.36-1.41-5.16-.47Z"/>
  <path class="cls-1" d="M227.71,230.99c-5.16.85-8.62,4.28-8.62,8.47s2.58,6.45,8.52,8c6.92,1.79,8.52,2.64,8.52,4.47,0,2.02-1.66,2.82-6.04,2.82-3.26,0-4.43-.24-6.72-1.27l-2.82-1.27-.97,2.16c-.54,1.18-.97,2.31-.97,2.45,0,.75,4.82,2.49,8.28,2.97,5.65.8,9.94-.05,12.86-2.49,4.77-4.05,3.99-9.88-1.66-12.66-.93-.42-3.31-1.18-5.21-1.6-6.53-1.41-8.43-3.01-6.58-5.41.49-.66,1.56-1.36,2.34-1.55,1.95-.56,6.28-.05,8.82,1.04l2.09.89.97-2.16c.54-1.18.97-2.31.97-2.49,0-.71-3.31-1.88-6.62-2.35-3.75-.52-3.9-.52-7.16,0Z"/>
  <path class="cls-1" d="M269.84,231.04c-4.77.8-9.4,4.33-11.35,8.75-1.36,3.11-1.27,8.57.24,11.67,3.12,6.4,10.76,9.79,18.61,8.24,7.6-1.51,12.08-6.82,12.13-14.35,0-3.2-.19-4.19-1.36-6.45-3.07-6.07-10.28-9.18-18.26-7.86ZM278.07,237.25c6.14,3.11,6.43,12.28.49,15.95-2,1.22-2.58,1.36-5.45,1.22-2.63-.14-3.56-.42-5.02-1.51-3.07-2.26-3.75-3.77-3.6-7.86.15-3.06.34-3.81,1.51-5.27,2.82-3.62,7.89-4.66,12.08-2.54Z"/>
  <path class="cls-1" d="M398.81,231.13c-3.51.75-6.82,2.68-8.72,4.99-1.85,2.26-3.46,6.54-3.46,9.22,0,2.49,1.56,6.97,3.17,8.99s5.11,4.33,7.7,5.08c2,.56,2.05.61,1.9,2.54-.1,1.88-.05,1.98,1.32,1.98.83,0,1.61.24,1.75.47.63.99-.83,1.88-2.97,1.88-1.7,0-2.14.19-2.39.99-.49,1.46.54,1.88,4.09,1.69,2.68-.14,3.26-.33,4.24-1.46.63-.71,1.17-1.74,1.17-2.35,0-1.22-1.66-3.11-2.73-3.11-.44,0-.68-.33-.58-.85s.83-.94,2.09-1.22c3.56-.71,5.94-1.69,7.74-3.25l1.8-1.51-2-1.88c-1.66-1.6-2.09-1.79-2.82-1.27-4.19,2.87-8.52,3.29-12.18,1.22-2.48-1.41-4.48-4.89-4.48-8s2-6.4,4.82-7.86c3.8-2.02,7.11-1.69,11.59,1.08,1.02.61,1.22.56,2.82-.94.93-.89,1.7-1.88,1.7-2.16,0-.8-3.65-3.2-5.84-3.86-2.82-.85-6.92-1.04-9.74-.42Z"/>
  <path class="cls-1" d="M442.11,230.99c-6.96,1.18-11.98,6.45-12.52,13.13-.58,8.33,5.16,14.92,13.83,15.86,7.35.75,13.64-2.35,16.85-8.28.93-1.74,1.12-2.82,1.12-6.35,0-3.81-.15-4.47-1.41-6.73-.83-1.36-2.24-3.15-3.17-3.95-3.6-3.06-9.5-4.52-14.71-3.67ZM449.85,237.16c5.94,2.82,6.72,11.77,1.32,15.77-1.51,1.08-2.44,1.36-5.07,1.51-3.75.19-5.75-.66-7.99-3.34-1.95-2.31-2.39-6.73-.93-9.88,2.05-4.47,7.79-6.31,12.66-4.05Z"/>
  <path class="cls-1" d="M525.44,231.04c-3.12.52-5.99,2.21-7.31,4.33-1.17,1.84-1.32,5.88-.24,7.86,1.02,1.93,4.19,3.58,8.62,4.52,6.62,1.41,8.86,3.39,6.77,5.88-.88,1.04-1.27,1.13-5.26,1.08-3.7,0-4.63-.19-6.92-1.32-2.87-1.41-2.92-1.41-3.95,1.65-.58,1.69-.58,1.93.29,2.54,2.82,2.12,12.71,3.11,16.9,1.69,4.14-1.36,7.16-5.65,6.48-9.18s-3.8-5.74-10.03-7.06c-6.38-1.41-7.99-2.59-6.77-5.18,1.07-2.26,6.62-2.73,11.1-.94,2.24.89,2.78.61,3.51-1.74.58-1.79.54-2.02-.29-2.59-2.09-1.51-8.62-2.26-12.91-1.55Z"/>
  <path class="cls-1" d="M306.61,231.32c-.19.14-.34,6.64-.34,14.35v14.03h21.92v-5.13l-7.4-.14-7.45-.14-.15-11.67-.1-11.62h-3.12c-1.66,0-3.21.14-3.36.33Z"/>
  <path class="cls-1" d="M343.48,232.21c-.49,1.79.1,18.07.73,20,.88,2.73,3.17,5.37,5.7,6.59,1.9.85,3.21,1.08,6.53,1.08,5.02.05,7.84-.85,10.33-3.39,2.82-2.78,3.31-5.27,3.31-16.19v-9.32h-6.33v8.57c0,9.6-.39,11.72-2.53,13.65-1.27,1.13-1.85,1.32-4.29,1.32-2.29,0-3.12-.24-4.24-1.13-2.19-1.79-2.58-3.91-2.58-13.65v-8.75h-3.17c-2.97,0-3.17.05-3.46,1.22Z"/>
  <path class="cls-1" d="M478.68,245.35v14.35h22.89v-5.18h-7.99c-9.11,0-8.43.33-8.18-4.28l.19-2.78h13.54v-4.71h-13.64v-6.59h15.1v-5.18h-21.92v14.35Z"/>
  <path class="cls-1" d="M607.8,228.28c-.66.16-1.64.56-2.18.87-1.15.68-2.55,3.42-2.55,4.96,0,1.63,1.27,3.77,2.88,4.81l1.36.91h33.04c30.78,0,33.17-.04,34.32-.71,1.73-.95,2.88-2.94,2.88-4.96-.04-3.14-1.44-5-4.4-5.8-1.89-.48-63.25-.56-65.34-.08Z"/>
</svg>